# Blender v2.75 (sub 0) OBJ File: 'Cigarette_Box.blend'
# www.blender.org
mtllib Cigarette_Box.mtl
o Cube.001
v 0.409619 3.110811 -1.129535
v 0.409619 3.110811 1.129536
v -0.396816 3.112168 1.129535
v -0.396816 3.112168 -1.129536
v 0.408442 2.411349 -1.129535
v 0.408441 2.411349 1.129536
v -0.397051 2.972885 1.129535
v -0.397050 2.972885 -1.129536
v 0.396389 -0.069828 -1.110404
v 0.396389 -0.069828 1.110404
v -0.396389 -0.069828 1.110404
v -0.396389 -0.069828 -1.110404
v 0.396389 2.422841 -1.110403
v 0.396388 2.422841 1.110404
v -0.396389 2.973532 1.110403
v -0.396389 2.973532 -1.110404
vt 0.527314 0.907968
vt 0.527314 0.852921
vt 0.622018 0.852921
vt 0.622018 0.907967
vt 0.871353 0.728805
vt 0.871353 0.906204
vt 0.273335 0.906204
vt 0.273335 0.728805
vt 0.000000 0.000000
vt 0.880446 1.001332
vt 0.880446 0.773779
vt 0.969332 0.773779
vt 0.969332 1.001332
vt 0.976927 0.730938
vt 0.976927 0.107303
vt 0.863396 0.107303
vt 0.863396 0.809801
vt 0.951814 0.108111
vt 0.951814 0.795510
vt 0.894408 0.795510
vt 0.894408 0.108111
vt 0.871912 0.106755
vt 0.871911 0.726849
vt 0.273866 0.726849
vt 0.273867 0.106755
vn 0.001700 1.000000 0.000000
vn 1.000000 -0.001700 0.000000
vn -0.000000 -0.000000 1.000000
vn -1.000000 0.001700 -0.000000
vn 0.000000 -0.000000 -1.000000
vn 0.000000 -1.000000 -0.000000
vn -1.000000 -0.000000 -0.000000
vn 1.000000 -0.000000 0.000000
usemtl CigBox
s off
f 1/1/1 4/2/1 3/3/1 2/4/1
f 5/5/2 1/6/2 2/7/2 6/8/2
f 6/9/3 2/9/3 3/9/3 7/9/3
f 7/9/4 3/9/4 4/9/4 8/9/4
f 1/9/5 5/9/5 8/9/5 4/9/5
f 9/10/6 10/11/6 11/12/6 12/13/6
f 13/14/5 9/15/5 12/16/5 16/17/5
f 11/18/7 15/19/7 16/20/7 12/21/7
f 10/15/3 14/14/3 15/17/3 11/16/3
f 9/22/8 13/23/8 14/24/8 10/25/8
